<?xml version="1.0" encoding="UTF-8"?>
<svg id="Layer_2" data-name="Layer 2" xmlns="http://www.w3.org/2000/svg" viewBox="0 0 68.81 65.43">
  <defs>
    <style>
      .cls-1 {
        fill: #f8e6ce;
      }

      .cls-2 {
        fill: #ffb402;
      }
    </style>
  </defs>
  <ellipse class="cls-2" cx="34.41" cy="32.71" rx="24.05" ry="23.54"/>
  <path class="cls-1" d="m28.4,32.78c-1.72-.16-3.63-.89-3.16-3.43.35-1.85,2.51-1.8,4.44-1.14l-.06-.08c-.97-1.15-.45-2.93,1.02-3.35.03,0,.07-.02.11-.03.72-.18,1.49.05,2.01.56.35.35.76.75.76.75l.14-.28c.53-1.04,1.64-1.69,2.83-1.62.02,0,.04,0,.06,0,1.82.13,3.03,1.7,2.69,3.45v.07s.52-.17.52-.17c1.41-.44,2.94.34,3.32,1.74.01.04.02.08.03.12.22.97-.17,1.97-.98,2.57l-1.69,1.25.36.21c1.19.7,1.71,2.15,1.17,3.4-.02.04-.04.08-.06.12-.6,1.27-2.1,1.88-3.45,1.44l-.87-.28-.06.26c-.36,1.48-1.8,2.47-3.34,2.25-.04,0-.09-.01-.13-.02-1.26-.22-2.22-1.22-2.41-2.46h0s-.21.12-.21.12c-1.49.82-3.43.31-4.26-1.16-.03-.05-.05-.1-.08-.14-.62-1.22-.32-2.69.71-3.61l.61-.55Z"/>
  <ellipse class="cls-2" cx="34.56" cy="32.73" rx="1.53" ry="2.03"/>
  <path class="cls-1" d="m22.35,32.4c-2.94-.3-5.78-1.56-5.48-4.97.36-4.08,5.11-3.03,7.83-2.13,1.28.42,1.96-1.21,1.22-2.09-1.21-1.43-1.02-3.62.58-4.68,2.28-1.51,4.12.46,5.66,1.97.55.53,1.59.48,1.96-.25,1.23-2.43,3.49-3.95,6.28-3.15,2.45.7,3.84,3.12,3.36,5.59-.17.89.57,1.84,1.54,1.54,1.34-.42,2.62-.82,4.01-.3,1.85.69,3,2.64,2.57,4.59-.51,2.29-3.25,3.65-5,4.94-.73.54-.87,1.64,0,2.16,1.08.64,2.07,1.31,2.62,2.5.7,1.54.45,3.35-.63,4.64-1.93,2.31-4.55,1.61-6.99.82-.63-.2-1.38.24-1.54.87-.58,2.39-2.24,4.29-4.85,4.39s-4.79-1.79-5.18-4.34c-.13-.83-1.2-1.1-1.84-.75-2.69,1.48-6.18,1.04-7.72-1.88-.84-1.59-.75-3.52.21-5.04.58-.91,1.48-1.58,2.27-2.29,1.2-1.07-.57-2.84-1.77-1.77s-2.46,2.17-3.15,3.75c-.97,2.23-.81,4.81.45,6.91,2.34,3.88,7.21,4.54,10.97,2.48l-1.84-.75c.56,3.62,3.98,6.27,7.59,6.17s6.42-2.75,7.26-6.22l-1.54.87c1.49.48,2.96,1.04,4.56.91,2.21-.18,4.22-1.31,5.46-3.15s1.48-4.23.68-6.28c-.73-1.85-2.12-3.02-3.78-4v2.16c2.83-2.1,6.51-4.11,6.32-8.17-.11-2.48-1.62-4.68-3.89-5.69-2.01-.89-3.92-.57-5.93.06l1.54,1.54c.72-3.69-1.14-7.33-4.79-8.56-3.88-1.31-7.65.69-9.42,4.2l1.96-.25c-1.23-1.21-2.38-2.53-4.1-3.01s-3.68-.1-5.1,1.02c-2.64,2.09-2.67,5.78-.59,8.24l1.22-2.09c-4.33-1.43-10.31-1.58-10.96,4.17-.25,2.2.38,4.4,2.14,5.84,1.64,1.34,3.75,1.79,5.81,2.01,1.6.17,1.59-2.34,0-2.5Z"/>
</svg>