<?xml version="1.0" encoding="UTF-8"?>
<svg id="Layer_10" data-name="Layer 10" xmlns="http://www.w3.org/2000/svg" viewBox="0 0 422.95 371.9">
  <defs>
    <style>
      .cls-1 {
        fill: #f8e6ce;
      }

      .cls-2 {
        fill: #00886c;
      }

      .cls-3 {
        fill: #ffa127;
      }

      .cls-4 {
        fill: #ffb402;
      }

      .cls-5 {
        fill: #ff7ca4;
      }

      .cls-6 {
        fill: #88b9e9;
      }
    </style>
  </defs>
  <path class="cls-4" d="m356.97,146.15c-5.02-27.49-36.43-26.65-64.4-16.9l.93-1.13c14.1-17.07,6.53-43.38-14.72-49.62-.5-.15-1.01-.29-1.52-.41-10.48-2.61-21.55.7-29.18,8.34-5.13,5.14-11.05,11.06-11.05,11.06l-2.03-4.11c-7.65-15.47-23.77-25.07-41-24.04-.29.02-.57.04-.86.06-26.38,1.95-43.9,25.18-38.98,51.17l.19,1-7.8-2.51c-20.44-6.58-42.62,5-48.12,25.75-.16.59-.3,1.17-.43,1.77-3.2,14.33,2.53,29.19,14.24,38.05l24.5,18.54-5.21,3.15c-17.22,10.41-24.72,31.86-17,50.43.26.62.53,1.24.81,1.85,8.71,18.82,30.4,27.86,50.09,21.36l12.64-4.17.91,3.81c5.21,21.89,26.16,36.55,48.43,33.35.64-.09,1.28-.19,1.91-.31,18.26-3.26,32.23-18.14,35.02-36.49h0s3.07,1.72,3.07,1.72c21.66,12.15,49.77,4.63,61.74-17.13.39-.71.76-1.42,1.12-2.15,8.99-18.05,4.67-39.91-10.23-53.5l-8.9-8.12c24.91-2.43,52.69-13.14,45.81-50.83Zm-88.44,51.48l4.36,3.98c7.3,6.66,9.42,17.37,5.01,26.21-.18.35-.36.7-.55,1.05-5.86,10.66-19.64,14.35-30.25,8.39l-1.51-.84h0c-1.37,8.99-8.21,16.28-17.16,17.88-.31.06-.62.11-.94.15-10.91,1.57-21.18-5.62-23.73-16.34l-.44-1.87-6.19,2.04c-9.65,3.19-20.28-1.24-24.54-10.46-.14-.3-.27-.6-.4-.9-3.79-9.1-.11-19.61,8.33-24.71l2.55-1.54-12-9.08c-5.74-4.34-8.54-11.62-6.98-18.65.06-.29.14-.58.21-.87,2.7-10.17,13.57-15.84,23.58-12.62l3.82,1.23-.09-.49c-2.41-12.73,6.17-24.12,19.1-25.07.14-.01.28-.02.42-.03,8.44-.5,16.34,4.2,20.09,11.78l.99,2.01s2.9-2.9,5.41-5.42c3.74-3.75,9.17-5.37,14.3-4.09.25.06.5.13.75.2,10.41,3.05,14.12,15.95,7.21,24.31l-.46.55c13.71-4.78,29.1-5.19,31.56,8.28,3.37,18.47-10.24,23.71-22.45,24.91Z"/>
  <path class="cls-1" d="m303.69,197.66c9.73-.96,19.51-2.96,28.28-7.43s15.6-11.51,18.87-20.76c1.9-5.37,2.45-11.21,2.16-16.88-.32-6.17-1.31-12.53-4.15-18.08-4.88-9.51-14.67-14.12-24.88-15.37-11.69-1.44-23.84.95-34.99,4.4-1.52.47-3.03.97-4.53,1.49l2.43,4.18c2.13-2.58,4.11-5.22,5.54-8.27,1.63-3.45,2.64-7.06,3.09-10.84.84-7.06-.73-14.42-4.24-20.6-3.7-6.5-9.52-11.46-16.44-14.23-8.61-3.46-18.31-3-26.66.97-5,2.38-8.79,6.09-12.66,9.96-2.57,2.57-5.14,5.15-7.71,7.72l3.93.51c-1.35-2.73-2.63-5.51-4.26-8.09-2.6-4.12-5.85-7.85-9.62-10.94-7.68-6.28-17.18-10.01-27.11-10.4-18.15-.72-35.88,9.44-43.32,26.2-4.14,9.32-4.8,19.29-2.92,29.24l3.08-3.08c-3-.97-5.99-2.01-9.02-2.88-6.03-1.72-12.38-1.98-18.54-.88-11.81,2.11-22.49,9.73-28.13,20.35-6.45,12.15-6.15,27.04.79,38.91,2.84,4.86,6.66,8.94,11.14,12.33,2.22,1.68,4.45,3.36,6.67,5.05,5.71,4.32,11.31,8.9,17.19,13,.13.09.25.19.37.28v-4.32c-2.69,1.63-5.47,3.17-8.02,5-4.51,3.25-8.37,7.25-11.41,11.9-6.01,9.2-8.28,20.54-6.33,31.34s8.59,21.08,17.8,27.52,19.84,8.77,30.43,7.4c7.13-.93,14-3.74,20.79-5.99l-3.08-1.75c.67,2.83,1.29,5.67,2.27,8.41,1.48,4.15,3.5,8.12,6.09,11.69,5.16,7.11,12.11,12.62,20.24,15.97,16.71,6.89,36.64,2.81,49.4-9.94,6.93-6.92,11.62-16.09,13.09-25.77l-3.67,1.49c3.71,2.08,7.41,4.08,11.47,5.43,5,1.67,10.34,2.49,15.61,2.43,10.75-.11,21.24-3.83,29.65-10.51,8.91-7.08,15.09-17.73,16.94-28.96s-.45-23.65-6.76-33.58c-4.48-7.06-10.97-12.33-17.08-17.9-2.37-2.17-5.92,1.36-3.54,3.54,4.55,4.15,9.52,8.13,13.44,12.91,6.78,8.26,10.16,19.06,9.54,29.7-.62,10.58-5.44,20.88-13.11,28.18-6.83,6.5-15.96,10.59-25.35,11.45-5.51.51-11.05,0-16.36-1.54-4.27-1.25-8.09-3.29-11.94-5.45-1.26-.71-3.42-.16-3.67,1.49-2.41,15.84-13.77,29.5-29.33,33.85-15.73,4.39-32.54-1.02-42.93-13.57-2.79-3.37-5.06-7.28-6.61-11.37-1.14-3.01-1.84-6.14-2.58-9.27-.3-1.27-1.82-2.16-3.08-1.75-5.02,1.66-10.01,3.57-15.12,4.91-9.42,2.47-19.64,1.29-28.22-3.33s-15.59-13.01-18.5-22.73c-2.85-9.51-1.72-19.95,2.97-28.69,2.6-4.85,6.19-9.15,10.55-12.53,2.78-2.15,5.91-3.85,8.91-5.67,1.75-1.05,1.46-3.21,0-4.32-4.77-3.61-9.54-7.22-14.31-10.82-5.25-3.97-11.11-7.72-15.46-12.71-8.38-9.62-10.74-23.16-6.42-35.11,3.72-10.27,12.55-18.17,22.98-21.21,5.94-1.73,12.28-1.92,18.3-.47,3.59.86,7.09,2.17,10.59,3.3,1.95.63,3.41-1.31,3.08-3.08-1.48-7.81-1.17-15.72,1.56-23.23s7.42-13.62,13.6-18.09c6.77-4.89,14.89-7.53,23.22-7.8,8.93-.29,17.67,2.46,24.93,7.66,3.98,2.85,7.44,6.5,10.12,10.58,1.82,2.77,3.21,5.77,4.67,8.73.72,1.46,2.85,1.58,3.93.51,1.9-1.9,3.8-3.81,5.7-5.71,3.06-3.06,5.98-6.45,9.59-8.88,7.03-4.73,15.68-6.16,23.83-3.81,12.57,3.62,20.63,15.57,20.25,28.29-.21,6.82-2.97,13-7.37,18.32-.72.87-.99,2.01-.39,3.03.53.91,1.79,1.51,2.82,1.15,10.66-3.7,22-6.42,33.35-6.07,4.76.15,9.44.85,13.94,2.73,3.63,1.52,7.31,4.23,9.61,7.47,3.03,4.27,4.31,9.21,4.96,14.41s.69,10.95-.56,16.2c-2.06,8.68-7.48,15.43-15.02,19.91-8.42,5-18.78,7.23-28.35,8.18-1.34.13-2.5,1.05-2.5,2.5,0,1.25,1.15,2.63,2.5,2.5Z"/>
  <path class="cls-6" d="m315.73,277.47c5.54.54,11.72,2.92,10.19,11.31-1.12,6.11-8.1,5.93-14.33,3.76l.21.25c3.14,3.8,1.45,9.65-3.27,11.04-.11.03-.23.06-.34.09-2.33.58-4.79-.16-6.49-1.86-1.14-1.14-2.46-2.46-2.46-2.46l-.45.91c-1.7,3.44-5.29,5.58-9.12,5.35-.06,0-.13,0-.19-.01-5.87-.43-9.77-5.6-8.67-11.38l.04-.22-1.73.56c-4.55,1.46-9.48-1.11-10.71-5.73-.03-.13-.07-.26-.1-.39-.71-3.19.56-6.49,3.17-8.46l5.45-4.12-1.16-.7c-3.83-2.31-5.5-7.09-3.78-11.22.06-.14.12-.28.18-.41,1.94-4.19,6.76-6.2,11.14-4.75l2.81.93.2-.85c1.16-4.87,5.82-8.13,10.77-7.42.14.02.28.04.43.07,4.06.73,7.17,4.04,7.79,8.12h0s.68-.38.68-.38c4.82-2.7,11.07-1.03,13.73,3.81.09.16.17.32.25.48,2,4.01,1.04,8.88-2.27,11.9l-1.98,1.81Z"/>
  <path class="cls-1" d="m311.2,283.48c.75.08,2.07.3,3.16.63s1.77.59,2.82,1.35c-.31-.23.26.23.28.25.19.17.37.35.53.54.19.23.22.26.09.1.08.11.15.21.22.32.16.27.32.53.44.81-.15-.34.14.47.13.44.08.28.15.57.2.86.07.43.07,1.36.02,1.98-.05.65-.16,1.32-.39,1.93-.11.28-.37.74-.54.93-.6.67-1.27.96-2.4,1.19-2.38.47-5.53-.32-8.03-1.18-1.04-.35-2.29.24-2.82,1.15-.6,1.02-.32,2.16.39,3.03,1.67,2.02,1.38,4.94-.64,6.46-1.12.84-2.86,1.13-4.31.51-1.55-.66-2.71-2.27-3.87-3.44-1.07-1.07-3.2-.95-3.93.51-.78,1.58-1.61,3.02-3.16,3.98-1.76,1.08-3.82,1.33-5.8.77-3.6-1.01-5.54-4.6-4.86-8.18.33-1.76-1.13-3.7-3.08-3.08-2.14.69-4.12,1.33-6.26.3-2.4-1.15-3.75-3.83-3.17-6.44.16-.75.46-1.43.89-2.06.19-.28.28-.4.51-.65.17-.18.34-.36.53-.52.32-.27.38-.32.18-.17-.23.19.21-.16.29-.22.34-.25.67-.51,1.01-.76,1.35-1.02,2.69-2.04,4.04-3.05,1.46-1.11,1.75-3.26,0-4.32-1.65-1-3.18-2.05-3.92-3.93-.84-2.15-.5-4.68.95-6.49s3.65-2.65,5.88-2.44c1.47.14,2.96.82,4.36,1.28,1.25.41,2.77-.48,3.08-1.75.79-3.31,2.94-6.29,6.64-6.51,3.97-.24,7.14,2.56,7.73,6.43.25,1.65,2.41,2.2,3.67,1.49,1.84-1.03,3.75-1.61,5.8-1.21,2.38.47,4.28,1.93,5.38,4.09s.97,4.95-.27,7.08c-.86,1.49-2.28,2.57-3.53,3.72-2.38,2.17,1.16,5.7,3.54,3.54,1.91-1.75,3.8-3.42,4.88-5.85,1.61-3.63,1.48-7.74-.42-11.25-1.68-3.11-4.79-5.43-8.25-6.15s-6.63.02-9.66,1.71l3.67,1.49c-.9-5.94-6.58-10.46-12.55-10.1s-10.13,4.6-11.46,10.18l3.08-1.75c-2.24-.74-4.47-1.6-6.88-1.47-3.69.2-7,2.05-9.12,5.08s-2.56,7.08-1.23,10.47c1.2,3.05,3.36,4.99,6.1,6.64v-4.32c-2.77,2.1-6.27,4.12-8.25,7.03-4,5.87-.91,13.93,5.62,16.19,2.9,1,5.66.41,8.47-.49l-3.08-3.08c-1.17,6.16,1.89,12.27,8.03,14.23,3.08.98,6.49.65,9.35-.83,2.59-1.34,4.31-3.56,5.58-6.12l-3.93.51c1.97,1.97,3.79,4.08,6.57,4.89,2.96.86,6.2.1,8.55-1.85,1.98-1.64,3.08-4.07,3.28-6.61s-.86-5.03-2.51-7.03l-2.43,4.18c5.12,1.75,12.54,2.87,16.11-2.32,1.71-2.49,1.95-6.09,1.33-8.97-.56-2.62-2.24-4.79-4.45-6.23-2.42-1.58-5.36-2.16-8.19-2.45-1.35-.14-2.5,1.25-2.5,2.5,0,1.47,1.15,2.36,2.5,2.5Z"/>
  <path class="cls-2" d="m133.71,124.18c5.54.54,11.72,2.92,10.19,11.31-1.12,6.11-8.1,5.93-14.33,3.76l.21.25c3.14,3.8,1.45,9.65-3.27,11.04-.11.03-.23.06-.34.09-2.33.58-4.79-.16-6.49-1.86-1.14-1.14-2.46-2.46-2.46-2.46l-.45.91c-1.7,3.44-5.29,5.58-9.12,5.35-.06,0-.13,0-.19-.01-5.87-.43-9.77-5.6-8.67-11.38l.04-.22-1.73.56c-4.55,1.46-9.48-1.11-10.71-5.73-.03-.13-.07-.26-.1-.39-.71-3.19.56-6.49,3.17-8.46l5.45-4.12-1.16-.7c-3.83-2.31-5.5-7.09-3.78-11.22.06-.14.12-.28.18-.41,1.94-4.19,6.76-6.2,11.14-4.75l2.81.93.2-.85c1.16-4.87,5.82-8.13,10.77-7.42.14.02.28.04.43.07,4.06.73,7.17,4.04,7.79,8.12h0s.68-.38.68-.38c4.82-2.7,11.07-1.03,13.73,3.81.09.16.17.32.25.48,2,4.01,1.04,8.88-2.27,11.9l-1.98,1.81Z"/>
  <path class="cls-1" d="m129.19,130.19c.75.08,2.07.3,3.16.63s1.77.59,2.82,1.35c-.31-.23.26.23.28.25.19.17.37.35.53.54.19.23.22.26.09.1.08.11.15.21.22.32.16.27.32.53.44.81-.15-.34.14.47.13.44.08.28.15.57.2.86.07.43.07,1.36.02,1.98-.05.65-.16,1.32-.39,1.93-.11.28-.37.74-.54.93-.6.67-1.27.96-2.4,1.19-2.38.47-5.53-.32-8.03-1.18-1.04-.35-2.29.24-2.82,1.15-.6,1.02-.32,2.16.39,3.03,1.67,2.02,1.38,4.94-.64,6.46-1.12.84-2.86,1.13-4.31.51-1.55-.66-2.71-2.27-3.87-3.44-1.07-1.07-3.2-.95-3.93.51-.78,1.58-1.61,3.02-3.16,3.98-1.76,1.08-3.82,1.33-5.8.77-3.6-1.01-5.54-4.6-4.86-8.18.33-1.76-1.13-3.7-3.08-3.08-2.14.69-4.12,1.33-6.26.3-2.4-1.15-3.75-3.83-3.17-6.44.16-.75.46-1.43.89-2.06.19-.28.28-.4.51-.65.17-.18.34-.36.53-.52.32-.27.38-.32.18-.17-.23.19.21-.16.29-.22.34-.25.67-.51,1.01-.76,1.35-1.02,2.69-2.04,4.04-3.05,1.46-1.11,1.75-3.26,0-4.32-1.65-1-3.18-2.05-3.92-3.93-.84-2.15-.5-4.68.95-6.49s3.65-2.65,5.88-2.44c1.47.14,2.96.82,4.36,1.28,1.25.41,2.77-.48,3.08-1.75.79-3.31,2.94-6.29,6.64-6.51,3.97-.24,7.14,2.56,7.73,6.43.25,1.65,2.41,2.2,3.67,1.49,1.84-1.03,3.75-1.61,5.8-1.21,2.38.47,4.28,1.93,5.38,4.09s.97,4.95-.27,7.08c-.86,1.49-2.28,2.57-3.53,3.72-2.38,2.17,1.16,5.7,3.54,3.54,1.91-1.75,3.8-3.42,4.88-5.85,1.61-3.63,1.48-7.74-.42-11.25-1.68-3.11-4.79-5.43-8.25-6.15s-6.63.02-9.66,1.71l3.67,1.49c-.9-5.94-6.58-10.46-12.55-10.1s-10.13,4.6-11.46,10.18l3.08-1.75c-2.24-.74-4.47-1.6-6.88-1.47-3.69.2-7,2.05-9.12,5.08s-2.56,7.08-1.23,10.47c1.2,3.05,3.36,4.99,6.1,6.64v-4.32c-2.77,2.1-6.27,4.12-8.25,7.03-4,5.87-.91,13.93,5.62,16.19,2.9,1,5.66.41,8.47-.49l-3.08-3.08c-1.17,6.16,1.89,12.27,8.03,14.23,3.08.98,6.49.65,9.35-.83,2.59-1.34,4.31-3.56,5.58-6.12l-3.93.51c1.97,1.97,3.79,4.08,6.57,4.89,2.96.86,6.2.1,8.55-1.85,1.98-1.64,3.08-4.07,3.28-6.61s-.86-5.03-2.51-7.03l-2.43,4.18c5.12,1.75,12.54,2.87,16.11-2.32,1.71-2.49,1.95-6.09,1.33-8.97-.56-2.62-2.24-4.79-4.45-6.23-2.42-1.58-5.36-2.16-8.19-2.45-1.35-.14-2.5,1.25-2.5,2.5,0,1.47,1.15,2.36,2.5,2.5Z"/>
  <circle class="cls-3" cx="292.61" cy="280.86" r="5.06"/>
  <circle class="cls-3" cx="107.91" cy="128.95" r="5.06"/>
  <path class="cls-5" d="m113.87,200.51c.22.02.29-.29.08-.36-6.7-2.14-30.38-11.07-36.64-32.12-7.32-24.59-39.42-17.62-27.09,5.55,10.96,20.58,54.16,25.98,63.66,26.93Z"/>
  <path class="cls-1" d="m111.42,198.27c-.86-.22-1.71-.5-2.55-.78-.95-.32-1.88-.65-2.82-1.01-.56-.21-1.11-.43-1.66-.66-.12-.05-.23-.1-.35-.14-.61-.25.49.21-.12-.05-.34-.15-.68-.3-1.03-.45-6.37-2.83-12.39-6.47-17.36-11.1-2.94-2.74-5.39-5.64-7.42-9.05-1.03-1.73-1.94-3.56-2.62-5.4-.78-2.1-1.36-4.24-2.27-6.29-2.8-6.26-8.37-11.57-15.25-12.89-5.84-1.12-12.17.52-15.7,5.55-4.15,5.9-2.1,13.86,1.25,19.61s9.2,10.39,15.15,13.71c6.53,3.64,13.67,6.22,20.85,8.23,10,2.81,20.37,4.68,30.72,5.57.17.01.34.03.51.04,1.35.1,2.5-1.22,2.5-2.5,0-1.44-1.15-2.4-2.5-2.5-.65-.05-1.3-.11-1.95-.18-.76-.08-1.52-.16-2.28-.25-.47-.06-.95-.11-1.42-.17-.23-.03-.46-.06-.7-.09-.19-.02-1.18-.16-.4-.05-5.81-.79-11.59-1.83-17.3-3.19-3.4-.81-6.78-1.72-10.11-2.78s-6.89-2.37-9.81-3.67c-3.15-1.41-6.22-3.02-9.11-4.92-.7-.46-1.39-.94-2.06-1.44-.63-.46-.85-.64-1.62-1.29-1.21-1.03-2.37-2.13-3.42-3.31-1.88-2.1-3.7-5.07-4.7-8.04-.26-.79-.49-1.58-.65-2.4-.07-.36-.14-.72-.19-1.08.06.44-.05-.74-.06-.94-.03-.68,0-1.35.07-2.03.04-.41-.12.6.01-.04.03-.13.05-.26.07-.39.08-.38.18-.76.3-1.13.56-1.74,1.89-3.38,3.61-4.38.23-.13.47-.25.71-.38.13-.07.27-.13.41-.19-.52.24-.22.09-.1.04.63-.24,1.27-.44,1.94-.58.24-.05.49-.1.74-.14.64-.11-.56.05.09-.01.13-.01.25-.03.38-.04.68-.05,1.36-.06,2.04-.02.3.02.59.04.89.08.67.07-.54-.1.13.02.13.02.27.05.4.07.71.14,1.41.32,2.1.55.3.1.6.21.89.33.66.26-.45-.22.19.08.13.06.26.12.39.18.66.32,1.31.69,1.93,1.09.32.21.63.42.94.65.59.44-.21-.18.14.11.15.12.3.25.45.38.61.53,1.19,1.09,1.73,1.69,1.08,1.18,1.89,2.38,2.76,4.01.91,1.72,1.41,3.35,2.04,5.28.68,2.09,1.55,4.13,2.56,6.08,1.88,3.62,4.37,6.95,7.19,9.9,7.85,8.23,18.62,14.15,29.51,17.32.21.06.42.12.63.18,3.12.81,4.45-4.01,1.33-4.82Z"/>
  <path class="cls-5" d="m326.71,200.72c-.18-.14-.4.1-.25.27,4.56,5.35,19.95,25.44,14.17,46.62-6.76,24.75,24.18,35.78,25.93,9.59,1.56-23.27-32.28-50.66-39.84-56.48Z"/>
  <path class="cls-1" d="m327.68,203.99c.72.76,1.39,1.56,2.05,2.37.32.4.64.8.96,1.2.38.48-.22-.29.02.02.1.13.2.26.3.4.21.28.42.56.63.84.9,1.23,1.77,2.48,2.59,3.76,4.28,6.62,7.6,13.92,8.9,21.74.72,4.28.71,8.77-.17,13.03-.8,3.89-1.85,7.58-1.51,11.61.52,6.22,3.41,12.03,8.61,15.62,4.33,3,10.09,3.78,14.84,1.31,5.95-3.1,8.12-10.3,8.4-16.56.32-6.96-2.23-13.81-5.53-19.82-3.63-6.61-8.39-12.61-13.46-18.17-7.02-7.68-14.84-14.72-23.17-20.95-.15-.11-.29-.22-.44-.32-1.09-.8-2.79-.18-3.42.9-.74,1.27-.2,2.62.9,3.42.54.39,1.06.8,1.59,1.2-.71-.54.17.13.41.32.33.26.65.51.98.77.81.64,1.61,1.3,2.41,1.96,4.54,3.75,8.91,7.71,13.05,11.89,4.98,5.02,9.62,10.29,13.51,16.08s6.79,11.29,7.9,17.92c.18,1.06.31,2.67.28,4.19-.03,1.77-.2,3.16-.6,4.86-.18.76-.4,1.52-.66,2.26-.05.14-.37.92-.2.53-.15.35-.32.7-.5,1.04-.31.58-.65,1.13-1.03,1.66-.27.38-.04.06.02-.01-.11.13-.21.26-.32.39-.22.25-.44.49-.68.72-.21.2-.42.39-.64.58-.34.29,0,0,.06-.04-.12.09-.25.18-.38.27-.48.32-.98.59-1.5.84-.33.16.36-.1-.23.08-.28.09-.56.18-.84.26-.23.06-.46.1-.69.15-.69.15.3.02-.38.05-.53.03-1.06.05-1.59.02-.13,0-.94-.09-.56-.04.33.04-.5-.09-.65-.13-.51-.11-1.01-.25-1.5-.42-.13-.05-1.05-.43-.45-.16-.29-.13-.57-.26-.85-.41-.51-.27-1.01-.57-1.49-.9-.22-.15-.43-.3-.64-.46.45.35-.28-.25-.42-.37-.46-.41-.89-.84-1.3-1.29-.19-.21-.36-.42-.54-.63-.43-.52.18.26-.06-.08-.13-.17-.25-.34-.37-.52-.35-.51-.67-1.03-.97-1.57-.18-.33-.34-.66-.5-.99-.06-.14-.13-.27-.19-.41.17.4-.05-.13-.09-.25-.5-1.35-.88-2.75-1.07-4.18.05.38-.05-.57-.06-.73-.03-.39-.05-.78-.06-1.18-.02-.86,0-1.73.08-2.59.14-1.62.64-3.46,1.07-5.27,1.06-4.41,1.34-9.02.86-13.53-1.38-13.03-8.02-25.55-16.68-35.25-.17-.18-.33-.37-.5-.55-2.22-2.34-5.75,1.2-3.54,3.54Z"/>
  <path class="cls-1" d="m262.72,196.6c9.88-.99,20.78-4.54,24.36-14.83.95-2.73,1.23-5.72,1.07-8.59-.18-3.24-.71-6.54-2.21-9.45-2.5-4.86-7.49-7.38-12.72-8.08-6.81-.91-13.85.64-20.27,2.86l2.43,4.18c2.47-2.99,4.11-6.22,4.58-10.1.45-3.72-.36-7.58-2.2-10.84-4.44-7.9-14.41-10.85-22.58-7.17-4.24,1.92-7.33,5.78-10.56,9.01l3.93.51c-1.83-3.7-3.93-7.11-7.2-9.74-3.96-3.19-8.77-5.07-13.86-5.31-9.43-.44-18.7,4.91-22.54,13.62-2.14,4.85-2.47,9.98-1.49,15.15l3.08-3.08c-1.49-.48-2.98-1.01-4.49-1.43-3.1-.87-6.33-.98-9.5-.44-6.06,1.02-11.6,4.93-14.58,10.3-3.46,6.24-3.45,13.95-.03,20.19,2.19,4,5.65,6.56,9.18,9.23,2.95,2.24,5.91,4.47,8.86,6.71v-4.32c-4.03,2.43-7.65,5.01-10.2,9.09-3.01,4.81-4.04,10.66-2.97,16.22,2.19,11.31,13.33,19.24,24.71,17.83,3.67-.45,7.15-1.84,10.64-2.99l-3.08-1.75c.88,3.7,2.06,7.22,4.34,10.32,2.76,3.74,6.4,6.59,10.72,8.32,8.58,3.43,18.78,1.24,25.29-5.28,3.53-3.53,5.98-8.24,6.73-13.18l-3.67,1.49c4.38,2.46,8.93,4.1,14.02,4.03,5.49-.08,10.81-1.98,15.12-5.37,9.6-7.54,11.92-21.67,5.59-32.02-2.27-3.72-5.59-6.46-8.77-9.36-2.37-2.17-5.92,1.36-3.54,3.54,2.13,1.94,4.45,3.81,6.32,6.01,3.25,3.82,4.85,8.91,4.57,13.9-.53,9.48-8.29,17.4-17.66,18.22-2.56.22-5.06.01-7.52-.7-2.02-.58-3.8-1.54-5.62-2.56-1.26-.71-3.42-.16-3.67,1.49-1.11,7.29-6.19,13.6-13.36,15.66s-15.07-.44-19.9-6.28c-2.32-2.8-3.36-6.09-4.18-9.56-.3-1.27-1.82-2.16-3.08-1.75-2.29.76-4.56,1.58-6.87,2.26-4.31,1.26-9.05.88-13.05-1.18-8.44-4.35-12.01-14.95-7.58-23.43,1.23-2.35,2.93-4.46,5.05-6.06,1.29-.97,2.74-1.75,4.12-2.59,1.75-1.05,1.46-3.21,0-4.32-2.3-1.74-4.59-3.48-6.89-5.21l-4.01-3.04c-.33-.25-.67-.5-1-.75-.38-.29.68.59-.2-.16-.67-.58-1.33-1.17-1.93-1.83-3.99-4.36-5.12-10.57-3.18-16.1,1.65-4.72,5.74-8.35,10.51-9.72,2.79-.8,5.75-.86,8.58-.12,1.63.43,3.22,1.01,4.83,1.52,1.95.63,3.41-1.31,3.08-3.08-1.34-7.05.95-14.47,6.84-18.8,6.57-4.84,15.76-4.82,22.35-.05,3.19,2.32,5.05,5.52,6.75,8.98.72,1.46,2.85,1.58,3.93.51.85-.86,1.71-1.71,2.56-2.57,1.43-1.43,2.79-3.07,4.45-4.23,3.17-2.23,7.08-2.98,10.83-1.92,5.71,1.61,9.22,6.93,9.08,12.56-.07,2.95-1.24,5.75-3.24,8.18-.72.87-.99,2.01-.39,3.03.53.91,1.79,1.51,2.82,1.15,5.1-1.76,10.48-3.08,15.9-2.93,2.24.06,4.23.34,6.4,1.22,1.44.58,3.2,1.87,4.11,3.11,2.69,3.7,3.08,9.72,2.04,14.07-.95,3.97-3.34,6.92-6.73,8.95-3.87,2.31-8.96,3.42-13.29,3.86-1.34.13-2.5,1.05-2.5,2.5,0,1.25,1.15,2.64,2.5,2.5Z"/>
</svg>