<?xml version="1.0" encoding="UTF-8"?>
<svg id="Layer_5" data-name="Layer 5" xmlns="http://www.w3.org/2000/svg" viewBox="0 0 140.01 60.8">
  <defs>
    <style>
      .cls-1, .cls-2 {
        fill: #f8e6ce;
      }

      .cls-3 {
        fill: #00886c;
      }

      .cls-4, .cls-5 {
        fill: #ffa127;
      }

      .cls-6 {
        fill: #ffb402;
      }

      .cls-7 {
        fill: #ff7ca4;
      }

      .cls-8 {
        fill: #606060;
      }

      .cls-5 {
        stroke: #f4e4d0;
        stroke-miterlimit: 10;
      }

      .cls-2 {
        font-family: ConcertOne-Regular, 'Concert One';
        font-size: 7.21px;
        letter-spacing: .01em;
      }
    </style>
  </defs>
  <rect class="cls-3" x="14.26" y="9.34" width="104.24" height="24.27" rx="12.14" ry="12.14"/>
  <g>
    <path class="cls-5" d="m72.48,22.09c-1.55-.15-3.27-.82-2.85-3.16.31-1.71,2.26-1.66,4-1.05l-.06-.07c-.88-1.06-.41-2.7.91-3.08.03,0,.06-.02.09-.03.65-.16,1.34.04,1.81.52.32.32.69.69.69.69l.13-.26c.48-.96,1.48-1.56,2.55-1.49.02,0,.04,0,.05,0,1.64.12,2.73,1.56,2.42,3.18v.06s.47-.16.47-.16c1.27-.41,2.65.31,2.99,1.6,0,.04.02.07.03.11.2.89-.16,1.81-.88,2.36l-1.52,1.15.32.2c1.07.65,1.54,1.98,1.06,3.13-.02.04-.03.08-.05.11-.54,1.17-1.89,1.73-3.11,1.33l-.79-.26-.06.24c-.32,1.36-1.63,2.27-3.01,2.07-.04,0-.08-.01-.12-.02-1.13-.2-2-1.13-2.18-2.27h0s-.19.11-.19.11c-1.35.75-3.09.29-3.84-1.06-.02-.04-.05-.09-.07-.13-.56-1.12-.29-2.48.64-3.32l.55-.5Z"/>
    <path class="cls-3" d="m87.01,37.1c-1.1-.1-2.32-.53-2.02-2.04.22-1.11,1.61-1.07,2.84-.68l-.04-.05c-.62-.69-.29-1.74.65-2,.02,0,.04-.01.07-.02.46-.11.95.03,1.29.34.23.21.49.44.49.44l.09-.17c.34-.62,1.05-1.01,1.81-.97.01,0,.03,0,.04,0,1.16.08,1.94,1.01,1.72,2.06v.04s.34-.1.34-.1c.9-.26,1.88.2,2.12,1.04,0,.02.01.05.02.07.14.58-.11,1.17-.63,1.53l-1.08.75.23.13c.76.42,1.09,1.28.75,2.03-.01.02-.02.05-.04.07-.38.76-1.34,1.12-2.21.86l-.56-.17-.04.15c-.23.88-1.15,1.47-2.14,1.34-.03,0-.06,0-.08-.01-.81-.13-1.42-.73-1.55-1.47h0s-.14.07-.14.07c-.96.49-2.2.19-2.72-.69-.02-.03-.03-.06-.05-.09-.4-.73-.21-1.6.45-2.15l.39-.33Z"/>
    <path class="cls-3" d="m36.63,37.28c-1.1-.1-2.32-.53-2.02-2.04.22-1.11,1.61-1.07,2.84-.68l-.04-.05c-.62-.69-.29-1.74.65-2,.02,0,.04-.01.07-.02.46-.11.95.03,1.29.34.23.21.49.44.49.44l.09-.17c.34-.62,1.05-1.01,1.81-.97.01,0,.03,0,.04,0,1.16.08,1.94,1.01,1.72,2.06v.04s.34-.1.34-.1c.9-.26,1.88.2,2.12,1.04,0,.02.01.05.02.07.14.58-.11,1.17-.63,1.53l-1.08.75.23.13c.76.42,1.09,1.28.75,2.03-.01.02-.02.05-.04.07-.38.76-1.34,1.12-2.21.86l-.56-.17-.04.15c-.23.88-1.15,1.47-2.14,1.34-.03,0-.06,0-.08-.01-.81-.13-1.42-.73-1.55-1.47h0s-.14.07-.14.07c-.96.49-2.2.19-2.72-.69-.02-.03-.03-.06-.05-.09-.4-.73-.21-1.6.45-2.15l.39-.33Z"/>
    <g>
      <path class="cls-1" d="m27.6,27.66c-.29.25-.7.48-1.23.69s-1.17.31-1.91.31c-.39,0-.77-.04-1.14-.13s-.69-.21-.97-.39-.51-.39-.67-.66-.25-.58-.25-.94v-10.74c0-.65,1.59-.97,4.77-.97h6.2c.09.16.18.35.25.56s.14.43.19.65.09.44.12.67.04.43.04.62c0,.79-.17,1.39-.51,1.8s-.88.62-1.62.62h-3.66c-.14,0-.24.03-.31.1s-.1.14-.1.24v.08s0,.07.02.08h4.67c.15.25.27.56.38.93s.16.75.16,1.14c0,.56-.07,1.03-.21,1.4s-.28.65-.44.84h-5.18c-.06.06-.08.12-.08.19,0,.06.02.11.07.14s.12.05.23.07.26.02.44.02.42,0,.71.01v2.67Z"/>
      <path class="cls-7" d="m34.47,15.78c.27-.18.58-.34.93-.48s.71-.27,1.09-.36.78-.17,1.19-.23.83-.08,1.24-.08c.55,0,1.09.05,1.63.15s1.03.25,1.47.46.82.48,1.14.82.53.73.64,1.2l2.41,9.96c-.32.42-.78.76-1.36,1.02s-1.32.4-2.22.4c-.39,0-.76-.04-1.11-.11s-.65-.17-.91-.31-.48-.31-.66-.52-.28-.45-.33-.73l-.23-1.29c.22,0,.43-.03.65-.08s.41-.1.58-.17.31-.14.42-.23.16-.17.16-.25c0-.11-.05-.2-.14-.27-.13.09-.27.17-.44.25s-.35.14-.53.18-.37.09-.56.11-.36.04-.52.04c-.3,0-.57-.02-.81-.06s-.44-.09-.62-.14-.33-.12-.45-.18-.23-.13-.32-.2c-.03.04-.05.08-.07.12s-.03.1-.03.15c0,.11.05.2.16.29s.26.17.44.23.39.12.63.16.48.07.74.08c.04.49.09.89.14,1.18s.1.48.15.55c-.06.12-.19.25-.38.39s-.42.27-.7.39-.6.22-.95.3-.73.12-1.14.12c-.5,0-.97-.06-1.42-.17s-.83-.27-1.16-.47-.6-.44-.79-.73-.3-.6-.3-.96c0-.08,0-.16.01-.24s.02-.16.04-.25l2.25-10.06Zm4.97,5.44c-.08-.42-.14-.76-.18-1.01s-.09-.45-.14-.58-.1-.21-.15-.25-.12-.06-.2-.06c-.05,0-.1,0-.14.02s-.08.03-.12.04l.4,2.13s.07.05.12.06.1.02.14.02c.06,0,.12,0,.18-.03s.1-.03.13-.05l-.05-.31Z"/>
      <path class="cls-4" d="m52.93,28.75c-1.07,0-2.04-.16-2.91-.48s-1.61-.79-2.22-1.41-1.09-1.37-1.43-2.27-.5-1.92-.5-3.07.19-2.21.58-3.09.89-1.61,1.53-2.19,1.37-1.02,2.2-1.31,1.69-.43,2.57-.43,1.72.12,2.46.35,1.39.55,1.92.95.95.87,1.24,1.42.44,1.13.44,1.75c0,.5-.08.93-.24,1.28s-.39.64-.67.86-.63.39-1.03.49-.84.16-1.31.16c-.3,0-.59-.04-.88-.12s-.56-.18-.81-.3-.46-.25-.63-.39-.28-.26-.33-.36c0-.18,0-.39,0-.63s.01-.48.03-.73c-.02,0-.05-.01-.08-.01h-.07c-.11,0-.19.03-.25.09s-.11.17-.14.32-.06.36-.07.62-.02.59-.02.99c0,.54.01,1.01.04,1.39s.06.7.1.94.1.42.16.53.13.17.21.17c.07,0,.13-.02.19-.05v-.96c.25-.17.55-.32.91-.45s.74-.25,1.15-.34.82-.17,1.25-.22.84-.08,1.23-.08c.19.2.36.45.52.75s.3.63.41.98.21.7.28,1.06.11.68.12.98c-.13.26-.36.55-.69.88s-.74.64-1.24.93-1.09.54-1.76.73-1.43.3-2.26.3Z"/>
      <path class="cls-1" d="m68.4,27.66c-.29.25-.7.48-1.23.69s-1.17.31-1.92.31c-.39,0-.77-.04-1.14-.13s-.69-.21-.97-.39-.5-.39-.67-.66-.25-.58-.25-.94v-6.8h-2.46c-.27-.39-.46-.77-.58-1.16s-.18-.79-.18-1.22c0-.32.03-.62.08-.88s.13-.5.22-.71.2-.39.31-.55.23-.29.35-.4h10.93c.2.3.36.68.5,1.13s.21.91.21,1.36c0,.43-.05.8-.15,1.1s-.24.56-.42.75-.39.34-.64.43-.52.14-.81.14h-3.1c-.02.06-.03.11-.03.16,0,.06.01.11.04.15s.09.07.17.1.21.05.37.06.37.02.63.02h.73v7.43Z"/>
      <path class="cls-7" d="m98.97,25.23c-.12,1.08-.46,1.92-1.02,2.52s-1.35.9-2.37.9c-.33,0-.66-.04-1-.12s-.66-.22-.97-.42-.61-.48-.88-.82-.51-.79-.71-1.34l-.38-1.04c-.27,0-.5-.02-.67-.05s-.32-.05-.45-.07c-.02.02-.04.05-.06.08s-.03.08-.03.15c0,.08.06.16.17.22s.34.1.69.12l.6,1.52v.9c-.39.28-.86.49-1.41.64s-1.11.22-1.71.22c-.44,0-.84-.04-1.2-.13s-.68-.22-.95-.41-.48-.41-.62-.68-.22-.59-.22-.97v-10.04c0-.16.08-.32.24-.48s.38-.31.67-.45.61-.27.99-.39.79-.22,1.22-.3.88-.15,1.35-.2.93-.07,1.39-.07c1.02,0,1.95.11,2.79.33s1.56.54,2.16.98,1.06.97,1.39,1.61.49,1.38.49,2.22c0,.49-.08.95-.23,1.36s-.35.79-.61,1.11-.55.6-.89.83-.7.4-1.08.52c0,.13.04.21.11.26s.15.07.25.07.25-.04.44-.11.42-.2.67-.38l1.83,1.87Zm-7.28-4.28s.05.02.1.03.08,0,.09,0c.17,0,.29-.05.36-.16s.11-.28.11-.52v-.38c0-.25-.03-.43-.09-.54s-.17-.17-.33-.17c-.04,0-.08,0-.13.01s-.09.02-.12.03c0,.06.01.12.01.18v1.51Z"/>
      <path class="cls-1" d="m102.21,22.54c.35,0,.67.04.98.11s.59.19.85.35.48.38.68.64.36.59.49.98c.23-.04.35-.17.35-.37,0-.16-.06-.37-.17-.61s-.3-.49-.56-.72-.6-.43-1.01-.6-.93-.25-1.53-.25c-.34,0-.63.03-.87.08s-.45.12-.61.18c-.25-.13-.47-.29-.67-.49s-.36-.43-.5-.68-.24-.53-.32-.82-.11-.6-.11-.91c0-.87.19-1.61.56-2.23s.86-1.13,1.46-1.52,1.28-.68,2.03-.86,1.51-.27,2.27-.27c.68,0,1.3.04,1.86.13s1.05.2,1.49.33.82.29,1.15.46.6.35.83.52c.08.23.14.47.18.74s.06.55.06.83c0,.19-.02.39-.05.6s-.08.41-.14.61-.14.38-.24.56-.21.33-.35.45c-.11-.08-.28-.16-.5-.26s-.47-.18-.74-.26-.58-.15-.9-.21-.65-.08-.97-.08c-.44,0-.75.03-.92.1s-.26.16-.26.3c0,.07.01.13.03.18.14-.04.3-.06.46-.07s.33-.02.49-.02c.61,0,1.2.08,1.79.23s1.11.4,1.57.75.83.81,1.11,1.38.42,1.27.42,2.1c0,.66-.14,1.27-.42,1.86s-.7,1.1-1.24,1.54-1.22.8-2.03,1.06-1.74.39-2.79.39c-.54,0-1.05-.02-1.52-.06s-.92-.1-1.35-.19-.84-.2-1.24-.35-.79-.32-1.17-.52c-.23-.34-.42-.7-.57-1.08s-.22-.81-.22-1.3c0-.38.07-.74.22-1.07s.34-.62.6-.86.56-.43.91-.58.74-.21,1.16-.21Z"/>
    </g>
    <ellipse class="cls-8" cx="78.11" cy="22.12" rx=".68" ry="1.57"/>
    <rect class="cls-3" x="37.03" y="32.51" width="56.51" height="9.1" rx="4.55" ry="4.55"/>
    <path class="cls-3" d="m75.57,22.08c-.7-.07-1.49-.37-1.29-1.44.14-.78,1.03-.75,1.82-.48l-.03-.03c-.4-.48-.18-1.23.42-1.4.01,0,.03,0,.04-.01.3-.07.61.02.82.24.14.15.31.31.31.31l.06-.12c.22-.44.67-.71,1.16-.68,0,0,.02,0,.02,0,.75.06,1.24.71,1.1,1.45v.03s.21-.07.21-.07c.58-.19,1.2.14,1.36.73,0,.02,0,.03.01.05.09.4-.07.82-.4,1.07l-.69.52.15.09c.49.29.7.9.48,1.42,0,.02-.01.03-.02.05-.25.53-.86.79-1.41.6l-.36-.12-.03.11c-.15.62-.74,1.03-1.37.94-.02,0-.04,0-.05,0-.52-.09-.91-.51-.99-1.03h0s-.09.05-.09.05c-.61.34-1.41.13-1.74-.48-.01-.02-.02-.04-.03-.06-.25-.51-.13-1.13.29-1.51l.25-.23Z"/>
  </g>
  <path class="cls-6" d="m89.61,29.47v.06s.47-.16.47-.16"/>
  <text class="cls-2" transform="translate(41.23 39.22)"><tspan x="0" y="0">LITTE LEARNERS</tspan></text>
</svg>